<?xml version="1.0" standalone="no"?><!DOCTYPE svg PUBLIC "-//W3C//DTD SVG 1.1//EN" "http://www.w3.org/Graphics/SVG/1.1/DTD/svg11.dtd"><svg t="1525338047520" class="icon" style="" viewBox="0 0 1024 1024" version="1.1" xmlns="http://www.w3.org/2000/svg" p-id="2024" xmlns:xlink="http://www.w3.org/1999/xlink" width="16" height="16"><defs><style type="text/css"></style></defs><path d="M512 546.133333c17.066667 0 30.72 13.653333 30.72 30.72v81.92c0 20.48-13.653333 30.72-30.72 30.72s-30.72-13.653333-30.72-30.72v-81.92c3.413333-17.066667 17.066667-30.72 30.72-30.72zM256 0h518.826667c34.133333 0 61.44 30.72 61.44 61.44v105.813333c0 184.32-98.986667 293.546667-146.773334 331.093334V955.733333c0 34.133333-30.72 64.853333-64.853333 64.853334h-232.106667c-34.133333 0-61.44-30.72-61.44-64.853334V498.346667c-44.373333-37.546667-146.773333-146.773333-146.773333-331.093334v-102.4C191.146667 27.306667 218.453333 0 256 0z m354.986667 955.733333v-92.16h-197.973334v88.746667l197.973334 3.413333z m150.186666-720.213333H266.24c23.893333 139.946667 129.706667 221.866667 133.12 221.866667 13.653333 6.826667 10.24 20.48 10.24 34.133333v324.266667h211.626667v-324.266667c0-17.066667-3.413333-27.306667 10.24-34.133333 3.413333-3.413333 105.813333-85.333333 129.706666-221.866667zM266.24 68.266667v105.813333h494.933333V68.266667H266.24z" fill="#D6332F" p-id="2025"></path></svg>