<?xml version="1.0" standalone="no"?><!DOCTYPE svg PUBLIC "-//W3C//DTD SVG 1.1//EN" "http://www.w3.org/Graphics/SVG/1.1/DTD/svg11.dtd"><svg t="1526264996002" class="icon" style="" viewBox="0 0 1024 1024" version="1.1" xmlns="http://www.w3.org/2000/svg" p-id="4424" xmlns:xlink="http://www.w3.org/1999/xlink" width="16" height="16"><defs><style type="text/css"></style></defs><path d="M565.333333 258.773333a21.333333 21.333333 0 0 0-29.226666 7.893334l-106.666667 184.746666a21.333333 21.333333 0 0 0 36.906667 21.333334l106.666666-184.746667a21.333333 21.333333 0 0 0-7.68-29.226667zM565.333333 433.706667a21.333333 21.333333 0 0 0-29.226666 7.893333l-42.666667 73.813333a21.333333 21.333333 0 0 0 36.906667 21.333334l42.666666-73.813334a21.333333 21.333333 0 0 0-7.68-29.226666z" fill="#CE4141" p-id="4425"></path><path d="M853.333333 106.666667a64 64 0 0 0-64-64H234.666667a64 64 0 0 0-21.333334 124.16v792.106666a21.333333 21.333333 0 1 0 42.666667 0V874.666667h512v84.266666a21.333333 21.333333 0 1 0 42.666667 0V166.826667A64 64 0 0 0 853.333333 106.666667zM256 832V170.666667h512v661.333333H256zM789.333333 128H234.666667a21.333333 21.333333 0 0 1 0-42.666667h554.666666a21.333333 21.333333 0 0 1 0 42.666667z" fill="#CE4141" p-id="4426"></path></svg>