<?xml version="1.0" standalone="no"?><!DOCTYPE svg PUBLIC "-//W3C//DTD SVG 1.1//EN" "http://www.w3.org/Graphics/SVG/1.1/DTD/svg11.dtd"><svg t="1526264930630" class="icon" style="" viewBox="0 0 1024 1024" version="1.1" xmlns="http://www.w3.org/2000/svg" p-id="4034" xmlns:xlink="http://www.w3.org/1999/xlink" width="16" height="16"><defs><style type="text/css"></style></defs><path d="M880 896c8.8 0 16-7.2 16-16V656c0-8.8-7.2-16-16-16H384V144c0-8.8-7.2-16-16-16H144c-8.8 0-16 7.2-16 16v736c0 8.8 7.2 16 16 16m48-64V192h128v64h-64v32h64v64h-32v32h32v64h-32v32h32v64h-32v32h32v64h-64v32h64v32h64v64h32v-64h64v32h32v-32h64v32h32v-32h64v32h32v-32h64v64h32v-64h32v128" p-id="4035" fill="#D6332F"></path></svg>