<?xml version="1.0" standalone="no"?><!DOCTYPE svg PUBLIC "-//W3C//DTD SVG 1.1//EN" "http://www.w3.org/Graphics/SVG/1.1/DTD/svg11.dtd"><svg t="1526025995668" class="icon" style="" viewBox="0 0 1024 1024" version="1.1" xmlns="http://www.w3.org/2000/svg" p-id="12027" xmlns:xlink="http://www.w3.org/1999/xlink" width="16" height="16"><defs><style type="text/css"></style></defs><path d="M511.7 64.7c-247.4 0-448 200.6-448 448s200.6 448 448 448 448-200.6 448-448-200.6-448-448-448z m-0.2 850.5c-222.6 0-403-180.4-403-403s180.4-403 403-403 403 180.4 403 403-180.5 403-403 403z" fill="#D6332F" p-id="12028"></path><path d="M512 513.2m-275 0a275 275 0 1 0 550 0 275 275 0 1 0-550 0Z" fill="#D6332F" p-id="12029"></path></svg>