<?xml version="1.0" standalone="no"?><!DOCTYPE svg PUBLIC "-//W3C//DTD SVG 1.1//EN" "http://www.w3.org/Graphics/SVG/1.1/DTD/svg11.dtd"><svg t="1526116790515" class="icon" style="" viewBox="0 0 1024 1024" version="1.1" xmlns="http://www.w3.org/2000/svg" p-id="9602" xmlns:xlink="http://www.w3.org/1999/xlink" width="16" height="16"><defs><style type="text/css"></style></defs><path d="M174.8 382.4V252.7c0-43 34.8-77.8 77.8-77.8h155.6c14.3 0 25.9-11.6 25.9-25.9s-11.5-26-25.9-26H252.6c-71.6 0-129.7 58.1-129.7 129.7v129.7c0 14.3 11.6 25.9 25.9 25.9s26-11.6 26-25.9z m441-207.5c-14.3 0-25.9-11.6-25.9-25.9s11.6-25.9 25.9-25.9h155.6c71.6 0 129.7 58.1 129.7 129.7v129.7c0 14.3-11.6 25.9-25.9 25.9s-25.9-11.6-25.9-25.9V252.7c0-43-34.8-77.8-77.8-77.8H615.8z m-441 466.9v129.7c0 43 34.8 77.8 77.8 77.8h155.6c14.3 0 25.9 11.6 25.9 25.9s-11.6 25.9-25.9 25.9H252.6c-71.6 0-129.7-58.1-129.7-129.7V641.8c0-14.3 11.6-25.9 25.9-25.9s26 11.5 26 25.9z m441 207.4h155.6c43 0 77.8-34.8 77.8-77.8V641.8c0-14.3 11.6-25.9 25.9-25.9s25.9 11.6 25.9 25.9v129.7c0 71.6-58.1 129.7-129.7 129.7H615.8c-14.3 0-25.9-11.6-25.9-25.9s11.5-26.1 25.9-26.1z" fill="#B2B2B2" p-id="9603"></path><path d="M122.9 486.1H901c14.3 0 25.9 11.6 25.9 25.9 0 14.3-11.6 25.9-25.9 25.9H122.9c-14.3 0-25.9-11.6-25.9-25.9 0-14.3 11.6-25.9 25.9-25.9z" fill="#B2B2B2" p-id="9604"></path></svg>