<?xml version="1.0" standalone="no"?><!DOCTYPE svg PUBLIC "-//W3C//DTD SVG 1.1//EN" "http://www.w3.org/Graphics/SVG/1.1/DTD/svg11.dtd"><svg t="1522215600843" class="icon" style="" viewBox="0 0 1024 1024" version="1.1" xmlns="http://www.w3.org/2000/svg" p-id="3933" xmlns:xlink="http://www.w3.org/1999/xlink" width="16" height="16"><defs><style type="text/css"></style></defs><path d="M417.408 833.344a416.512 416.512 0 0 1-416-416c0-229.376 186.624-416 416-416s416 186.624 416 416c0 229.312-186.624 416-416 416z m0-768c-194.112 0-352 157.888-352 352s157.888 352 352 352c194.048 0 352-157.888 352-352s-157.888-352-352-352z" p-id="3934"></path><path d="M990.592 1022.656a32 32 0 0 1-22.272-9.024l-299.008-289.344a32 32 0 0 1 44.48-46.016l299.008 289.344a32 32 0 0 1-22.208 55.04z" p-id="3935"></path></svg>