<?xml version="1.0" standalone="no"?><!DOCTYPE svg PUBLIC "-//W3C//DTD SVG 1.1//EN" "http://www.w3.org/Graphics/SVG/1.1/DTD/svg11.dtd"><svg t="1526111213067" class="icon" style="" viewBox="0 0 1024 1024" version="1.1" xmlns="http://www.w3.org/2000/svg" p-id="8590" xmlns:xlink="http://www.w3.org/1999/xlink" width="16" height="16"><defs><style type="text/css"></style></defs><path d="M256 128h512a128 128 0 0 1 128 128v512a128 128 0 0 1-128 128H256a128 128 0 0 1-128-128V256a128 128 0 0 1 128-128z m0 64a64 64 0 0 0-64 64v512a64 64 0 0 0 64 64h512a64 64 0 0 0 64-64V256a64 64 0 0 0-64-64H256z" fill="#D6332F" p-id="8591"></path><path d="M683.392 374.912H340.608c-20.544 0-34.24-13.76-34.24-34.304 0-20.544 13.696-34.304 34.24-34.304h342.784c20.544 0 34.24 13.76 34.24 34.304 0 20.608-13.696 34.304-34.24 34.304z" fill="#D6332F" p-id="8592"></path><path d="M340.608 409.152c-20.544 0-34.24-13.696-34.24-34.24v-34.304c0-20.544 13.696-34.304 34.24-34.304 20.608 0 34.304 13.76 34.304 34.304v34.304c0 20.544-13.696 34.24-34.304 34.24z m342.784 0c-20.608 0-34.304-13.696-34.304-34.24v-34.304c0-20.544 13.696-34.304 34.304-34.304 20.544 0 34.24 13.76 34.24 34.304v34.304c0 20.544-13.696 34.24-34.24 34.24zM512 717.632c-20.544 0-34.304-13.696-34.304-34.24V340.608c0-20.544 13.76-34.24 34.304-34.24 20.544 0 34.24 13.696 34.24 34.24v342.784c0 20.544-13.696 34.24-34.24 34.24z" fill="#D6332F" p-id="8593"></path><path d="M546.24 717.632h-68.48c-20.608 0-34.304-13.696-34.304-34.24 0-20.608 13.696-34.304 34.24-34.304h68.544c20.608 0 34.304 13.696 34.304 34.304 0 20.544-13.696 34.24-34.304 34.24z" fill="#D6332F" p-id="8594"></path></svg>